# xmcd CD database file generated by libcdaudio 0.99.6
# 
# Track frame offsets:
#       150
#       14654
#       28533
#       48900
#       67508
#       85483
#       98078
#       117519
#       131580
# 
# Disc length: 1901 seconds
# 
# Revision: 1
# Processed by: cddbd v1.4PL0 Copyright (c) Steve Scherf et al.
# Submitted via: libcdaudio 0.99.6
# 
DISCID=6e076b09
DTITLE=Willy DeVille - 2 Meter Sessies
DYEAR=1900
DGENRE=
TTITLE0=Goin' over the hill
TTITLE1=18 Hammers
TTITLE2=Across the border line
TTITLE3=Lay me down easy
TTITLE4=Spanish Stroll
TTITLE5=Save The Last Dance For Me
TTITLE6=Back Door Man
TTITLE7=I'm In The Mood (For Love)
TTITLE8=Lover Please
EXTD=
EXTT0=
EXTT1=
EXTT2=
EXTT3=
EXTT4=
EXTT5=
EXTT6=
EXTT7=
EXTT8=
PLAYORDER=
